<?xml version="1.0" standalone="no"?>
<!DOCTYPE svg PUBLIC "-//W3C//DTD SVG 20010904//EN"
 "http://www.w3.org/TR/2001/REC-SVG-20010904/DTD/svg10.dtd">
<svg version="1.0" xmlns="http://www.w3.org/2000/svg"
 width="700.000000pt" height="700.000000pt" viewBox="0 0 700.000000 700.000000"
 preserveAspectRatio="xMidYMid meet">
<metadata>
Created by potrace 1.11, written by Peter Selinger 2001-2013
</metadata>
<g transform="translate(0.000000,700.000000) scale(0.100000,-0.100000)"
fill="#000000" stroke="none">
<path d="M0 3500 l0 -3500 3500 0 3500 0 0 3500 0 3500 -3500 0 -3500 0 0
-3500z m6560 0 l0 -3060 -3060 0 -3060 0 0 3060 0 3060 3060 0 3060 0 0 -3060z"/>
<path d="M760 3565 l0 -1375 320 0 320 0 0 380 0 380 348 0 c191 0 386 5 432
10 439 53 752 255 892 575 62 141 73 203 72 415 0 182 -2 201 -27 283 -100
326 -336 546 -699 651 -183 53 -239 56 -977 56 l-681 0 0 -1375z m1379 835
c109 -26 188 -69 251 -136 64 -68 97 -139 112 -242 30 -204 -57 -398 -213
-478 -128 -64 -151 -67 -536 -72 l-353 -3 0 475 0 476 328 0 c293 0 336 -2
411 -20z"/>
<path d="M3610 3565 l0 -1375 320 0 320 0 0 565 0 565 625 0 625 0 0 -565 0
-565 320 0 320 0 0 1375 0 1375 -320 0 -320 0 0 -540 0 -540 -625 0 -625 0 0
540 0 540 -320 0 -320 0 0 -1375z"/>
</g>
</svg>
