<svg width="14" height="16" viewBox="0 0 14 16" fill="none" xmlns="http://www.w3.org/2000/svg">
<path id="icon-doctor" fill-rule="evenodd" clip-rule="evenodd" d="M10.2972 9.62708C11.2054 9.65968 12.0527 9.69009 12.9 11.3C13.5 12.4 13.8 16 13.7 16H0C0 16 0.3 12.4 0.9 11.3C1.6 10 2.4 9.7 3.1 9.6C3 10 2.9 10.4 2.9 10.9V12.1C2.3 12.3 1.9 12.8 1.9 13.5C1.9 14.3 2.6 15 3.4 15C4.2 15 4.9 14.3 4.9 13.6C4.9 13 4.5 12.4 3.9 12.2V11C3.9 10.2 4.1 9.8 4.3 9.6C4.9 9.5 5.4 9.3 5.4 8.8C5.4 8.44294 5.19185 8.32005 4.90828 8.15262C4.63591 7.99181 4.29395 7.78992 4 7.3C4 7.3 3.2 5 3.4 3H4.4C4.3 2.8 4.3 2.7 4.3 2.5C4.3 2.4 4.325 2.325 4.35 2.25C4.375 2.175 4.4 2.1 4.4 2H3.6C4 0.9 5 0 6.9 0C8.8 0 9.8 0.9 10.1 1.9H9.3C9.4 2.1 9.4 2.2 9.4 2.4C9.4 2.5 9.375 2.575 9.35 2.65C9.325 2.725 9.3 2.8 9.3 2.9H10.3C10.6 4.9 9.7 7.2 9.7 7.2C9.38351 7.78022 9.01138 7.99875 8.73036 8.16377C8.47862 8.31159 8.3 8.41648 8.3 8.7C8.3 9 8.5 9.2 8.7 9.3C8.8 9.5 8.9 10 8.9 10.6C7.3 10.9 6.9 12.9 6.9 14V15H8.9V14H7.9C7.9 13.9 7.9 11.5 9.4 11.5C10.9 11.5 10.9 14 10.9 14H9.9V15H11.9V14C11.9 12.9 11.5 11 9.9 10.6C9.9 10.2 9.9 9.9 9.8 9.6C9.96794 9.61527 10.1336 9.62121 10.2972 9.62708ZM6.9 1C6.1 1 5.4 1.7 5.4 2.5C5.4 3.3 6.1 4 6.9 4C7.7 4 8.4 3.3 8.4 2.5C8.4 1.7 7.7 1 6.9 1ZM3.85355 13.8536C3.94732 13.7598 4 13.6326 4 13.5C4 13.3674 3.94732 13.2402 3.85355 13.1464C3.75979 13.0527 3.63261 13 3.5 13C3.36739 13 3.24021 13.0527 3.14645 13.1464C3.05268 13.2402 3 13.3674 3 13.5C3 13.6326 3.05268 13.7598 3.14645 13.8536C3.24021 13.9473 3.36739 14 3.5 14C3.63261 14 3.75979 13.9473 3.85355 13.8536Z" fill="black"/>
</svg>
