<svg width="16" height="15" viewBox="0 0 16 15" fill="none" xmlns="http://www.w3.org/2000/svg">
<path d="M4.44495 4.88914H6.22282V6.66701C6.22282 6.78489 6.26964 6.89794 6.353 6.98129C6.43635 7.06465 6.5494 7.11147 6.66728 7.11147H8.44515C8.56303 7.11147 8.67608 7.06465 8.75944 6.98129C8.84279 6.89794 8.88962 6.78489 8.88962 6.66701V4.88914H10.6675C10.7854 4.88914 10.8984 4.84231 10.9818 4.75896C11.0651 4.6756 11.112 4.56255 11.112 4.44467V2.6668C11.112 2.54892 11.0651 2.43587 10.9818 2.35252C10.8984 2.26916 10.7854 2.22234 10.6675 2.22234H8.88962V0.444467C8.88962 0.326587 8.84279 0.213535 8.75944 0.130181C8.67608 0.0468276 8.56303 0 8.44515 0H6.66728C6.5494 0 6.43635 0.0468276 6.353 0.130181C6.26964 0.213535 6.22282 0.326587 6.22282 0.444467V2.22234H4.44495C4.32707 2.22234 4.21402 2.26916 4.13066 2.35252C4.04731 2.43587 4.00048 2.54892 4.00048 2.6668V4.44467C4.00048 4.56255 4.04731 4.6756 4.13066 4.75896C4.21402 4.84231 4.32707 4.88914 4.44495 4.88914ZM15.7841 9.34242C15.6978 9.22469 15.589 9.12517 15.4641 9.04958C15.3392 8.974 15.2005 8.92384 15.0562 8.90197C14.9118 8.88011 14.7646 8.88698 14.6228 8.92219C14.4811 8.95739 14.3478 9.02024 14.2304 9.10713L10.9061 11.5567H7.55566C7.43778 11.5567 7.32473 11.5099 7.24138 11.4265C7.15802 11.3432 7.11119 11.2301 7.11119 11.1122C7.11119 10.9944 7.15802 10.8813 7.24138 10.7979C7.32473 10.7146 7.43778 10.6678 7.55566 10.6678H9.72911C10.1736 10.6678 10.5833 10.3658 10.6561 9.92856C10.6776 9.80088 10.671 9.67006 10.6367 9.5452C10.6025 9.42034 10.5414 9.30445 10.4578 9.2056C10.3742 9.10675 10.27 9.02732 10.1526 8.97284C10.0351 8.91837 9.90719 8.89016 9.77772 8.89017H5.33305C4.58342 8.89002 3.8565 9.14746 3.27406 9.61938L1.98232 10.6678H0.444467C0.326834 10.6686 0.214247 10.7157 0.131066 10.7988C0.0478852 10.882 0.000800498 10.9946 0 11.1122V13.779C0.000800498 13.8967 0.0478852 14.0093 0.131066 14.0924C0.214247 14.1756 0.326834 14.2227 0.444467 14.2235H10.0838C10.7004 14.222 11.3005 14.0249 11.7978 13.6604L15.5488 10.8944C15.7856 10.7196 15.9433 10.4581 15.9874 10.1671C16.0316 9.87612 15.9584 9.57954 15.7841 9.34242V9.34242Z" fill="black"/>
</svg>
