<svg width="16" height="16" viewBox="0 0 16 16" fill="none" xmlns="http://www.w3.org/2000/svg">
<path id="icon-arrow" d="M15.6059 7.05333C15.4821 6.92836 15.3347 6.82917 15.1724 6.76148C15.01 6.69379 14.8359 6.65894 14.66 6.65894C14.4842 6.65894 14.31 6.69379 14.1477 6.76148C13.9853 6.82917 13.838 6.92836 13.7142 7.05333L9.3311 11.4533V1.33333C9.3311 0.979711 9.19074 0.640573 8.9409 0.390525C8.69105 0.140476 8.35219 0 7.99886 0C7.64553 0 7.30667 0.140476 7.05683 0.390525C6.80699 0.640573 6.66663 0.979711 6.66663 1.33333V11.4533L2.28357 7.05333C2.03271 6.80226 1.69246 6.66121 1.33769 6.66121C0.98291 6.66121 0.642664 6.80226 0.391799 7.05333C0.140935 7.30441 0 7.64493 0 8C0 8.35507 0.140935 8.6956 0.391799 8.94667L7.05298 15.6133C7.17968 15.7347 7.32908 15.8299 7.49261 15.8933C7.65208 15.9639 7.82451 16.0003 7.99886 16.0003C8.17321 16.0003 8.34564 15.9639 8.50511 15.8933C8.66865 15.8299 8.81805 15.7347 8.94475 15.6133L15.6059 8.94667C15.7308 8.82272 15.8299 8.67525 15.8975 8.51277C15.9652 8.35029 16 8.17602 16 8C16 7.82398 15.9652 7.64971 15.8975 7.48723C15.8299 7.32475 15.7308 7.17728 15.6059 7.05333V7.05333Z" fill="black"/>
</svg>
