<svg width="16" height="14" viewBox="0 0 16 14" fill="none" xmlns="http://www.w3.org/2000/svg">
<path id="icon-heart" d="M4.4 0C3.23305 0 2.11389 0.46357 1.28873 1.28873C0.46357 2.11389 0 3.23305 0 4.4C0 4.8 0.072 5.2 0.176 5.6H3.44L4.456 2.904C4.696 2.264 5.64 2.2 5.944 2.904L7.6 7.2L8.072 6.064C8.176 5.8 8.456 5.6 8.8 5.6H15.824C15.928 5.2 16 4.8 16 4.4C16 3.23305 15.5364 2.11389 14.7113 1.28873C13.8861 0.46357 12.767 0 11.6 0C10.112 0 8.8 0.744 8 1.872C7.2 0.744 5.888 0 4.4 0ZM0.8 6.8C0.587827 6.8 0.384344 6.88429 0.234315 7.03431C0.0842854 7.18434 0 7.38783 0 7.6C0 7.81217 0.0842854 8.01566 0.234315 8.16569C0.384344 8.31571 0.587827 8.4 0.8 8.4H2.752L7.2 12.8C8 13.52 8 13.52 8.8 12.8L13.248 8.4H15.2C15.4122 8.4 15.6157 8.31571 15.7657 8.16569C15.9157 8.01566 16 7.81217 16 7.6C16 7.38783 15.9157 7.18434 15.7657 7.03431C15.6157 6.88429 15.4122 6.8 15.2 6.8H9.12L8.376 8.64C8.056 9.448 7.136 9.336 6.84 8.664L5.2 4.4L4.432 6.264C4.312 6.568 4.04 6.8 3.68 6.8H0.8Z" fill="black"/>
</svg>
